<svg width="17" height="17" viewBox="0 0 17 17" fill="none" xmlns="http://www.w3.org/2000/svg">
<path d="M15.3001 14.6951L14.3267 3.73374C14.3059 3.49039 14.1007 3.30613 13.8609 3.30613H11.8584C11.8306 1.47751 10.3357 0 8.50013 0C6.66455 0 5.16966 1.47751 5.14185 3.30613H3.1394C2.89604 3.30613 2.69441 3.49039 2.67355 3.73374L1.70013 14.6951C1.70013 14.709 1.69666 14.7229 1.69666 14.7368C1.69666 15.9849 2.84042 17 4.24839 17H12.7519C14.1598 17 15.3036 15.9849 15.3036 14.7368C15.3036 14.7229 15.3036 14.709 15.3001 14.6951ZM8.50013 0.93865C9.81772 0.93865 10.892 1.9955 10.9198 3.30613H6.0805C6.10831 1.9955 7.18254 0.93865 8.50013 0.93865ZM12.7519 16.0613H4.24839C3.36537 16.0613 2.64921 15.4773 2.63531 14.7577L3.567 4.24826H5.13837V5.67362C5.13837 5.93436 5.34696 6.14294 5.6077 6.14294C5.86843 6.14294 6.07702 5.93436 6.07702 5.67362V4.24826H10.9198V5.67362C10.9198 5.93436 11.1284 6.14294 11.3891 6.14294C11.6498 6.14294 11.8584 5.93436 11.8584 5.67362V4.24826H13.4298L14.365 14.7577C14.3511 15.4773 13.6314 16.0613 12.7519 16.0613Z" fill="black"/>
</svg>
