<svg width="25" height="25" viewBox="0 0 25 25" fill="none" xmlns="http://www.w3.org/2000/svg">
<path d="M18.125 1.04175C15.8854 1.04521 13.7874 2.13753 12.5 3.97001C11.2126 2.13753 9.11458 1.04521 6.875 1.04175C3.21248 1.04175 0 4.44934 0 8.33342C0 12.1188 2.13745 16.0175 6.18164 19.6084C8.05542 21.269 10.1109 22.7125 12.3088 23.9118C12.4288 23.9737 12.5712 23.9737 12.6912 23.9118C14.8883 22.7125 16.9432 21.2688 18.8163 19.6084C22.8625 16.0175 25 12.1188 25 8.33342C25 4.44934 21.7875 1.04175 18.125 1.04175V1.04175ZM12.5 23.0679C10.9696 22.2234 0.833333 16.3233 0.833333 8.33342C0.833333 4.89307 3.65621 1.87508 6.875 1.87508C9.05558 1.87895 11.0657 3.0553 12.137 4.95471C12.2172 5.07719 12.3537 5.15084 12.5 5.15084C12.6463 5.15084 12.7828 5.07719 12.863 4.95471C13.9343 3.0553 15.9444 1.87895 18.125 1.87508C21.3438 1.87508 24.1667 4.89307 24.1667 8.33342C24.1667 16.3233 14.0304 22.2234 12.5 23.0679Z" fill="black"/>
</svg>
