<svg width="17" height="17" viewBox="0 0 17 17" fill="none" xmlns="http://www.w3.org/2000/svg">
<path d="M16.8516 16.133L12.7204 12.0018C13.8286 10.7277 14.4995 9.06541 14.4995 7.24856C14.4995 3.24922 11.2465 0 7.25097 0C3.25163 0 0.00241089 3.25299 0.00241089 7.24856C0.00241089 11.2441 3.2554 14.4971 7.25097 14.4971C9.06782 14.4971 10.7301 13.8262 12.0042 12.718L16.1354 16.8492C16.2335 16.9472 16.3654 17 16.4935 17C16.6217 17 16.7536 16.951 16.8516 16.8492C17.0476 16.6532 17.0476 16.329 16.8516 16.133ZM1.01638 7.24856C1.01638 3.81087 3.81328 1.01774 7.2472 1.01774C10.6849 1.01774 13.478 3.81463 13.478 7.24856C13.478 10.6825 10.6849 13.4831 7.2472 13.4831C3.81328 13.4831 1.01638 10.6863 1.01638 7.24856Z" fill="black"/>
</svg>
