<svg width="17" height="17" viewBox="0 0 17 17" fill="none" xmlns="http://www.w3.org/2000/svg">
<path d="M8.43838 9.16008C8.45598 9.16008 8.47358 9.16008 8.49471 9.16008C8.50175 9.16008 8.50879 9.16008 8.51583 9.16008C8.52639 9.16008 8.54047 9.16008 8.55103 9.16008C9.58251 9.14247 10.4168 8.77987 11.0329 8.08635C12.3883 6.5585 12.163 3.93933 12.1383 3.68938C12.0503 1.813 11.1632 0.915303 10.4309 0.496376C9.88526 0.183061 9.24807 0.0140816 8.53695 0H8.51231C8.50879 0 8.50175 0 8.49823 0H8.4771C8.08634 0 7.31889 0.0633672 6.58313 0.482294C5.84385 0.901222 4.94263 1.79892 4.85462 3.68938C4.82997 3.93933 4.60467 6.5585 5.96002 8.08635C6.57257 8.77987 7.4069 9.14247 8.43838 9.16008ZM5.79456 3.77739C5.79456 3.76683 5.79808 3.75626 5.79808 3.74922C5.91426 1.2251 7.70614 0.954028 8.47358 0.954028H8.48767C8.49471 0.954028 8.50527 0.954028 8.51583 0.954028C9.46634 0.97515 11.0822 1.36239 11.1913 3.74922C11.1913 3.75978 11.1913 3.77035 11.1949 3.77739C11.1984 3.80203 11.4448 6.1959 10.3253 7.4562C9.88174 7.9561 9.29032 8.20253 8.51231 8.20957C8.50527 8.20957 8.50175 8.20957 8.49471 8.20957C8.48767 8.20957 8.48414 8.20957 8.4771 8.20957C7.70262 8.20253 7.10767 7.9561 6.66762 7.4562C5.55165 6.20294 5.79104 3.79851 5.79456 3.77739Z" fill="black"/>
<path d="M15.7291 13.5043C15.7291 13.5008 15.7291 13.4973 15.7291 13.4937C15.7291 13.4656 15.7256 13.4374 15.7256 13.4057C15.7045 12.7087 15.6587 11.0787 14.1309 10.5577C14.1203 10.5542 14.1062 10.5507 14.0957 10.5472C12.508 10.1423 11.1878 9.227 11.1737 9.21644C10.959 9.06506 10.6633 9.11787 10.5119 9.33262C10.3605 9.54736 10.4133 9.84307 10.6281 9.99445C10.6879 10.0367 12.089 11.0118 13.8422 11.4625C14.6624 11.7547 14.754 12.6312 14.7786 13.4339C14.7786 13.4656 14.7786 13.4937 14.7821 13.5219C14.7857 13.8387 14.7645 14.3281 14.7082 14.6097C14.1379 14.9336 11.9025 16.0531 8.50175 16.0531C5.11513 16.0531 2.8656 14.9301 2.29177 14.6062C2.23544 14.3245 2.2108 13.8352 2.21784 13.5184C2.21784 13.4902 2.22136 13.462 2.22136 13.4304C2.24601 12.6277 2.33754 11.7511 3.15779 11.4589C4.91095 11.0083 6.31207 10.0297 6.37191 9.99093C6.58666 9.83955 6.63946 9.54384 6.48809 9.32909C6.33671 9.11435 6.04099 9.06154 5.82625 9.21292C5.81217 9.22348 4.49906 10.1388 2.90432 10.5436C2.89024 10.5472 2.87968 10.5507 2.86912 10.5542C1.34126 11.0787 1.2955 12.7087 1.27438 13.4022C1.27438 13.4339 1.27438 13.462 1.27086 13.4902C1.27086 13.4937 1.27086 13.4973 1.27086 13.5008C1.26734 13.6838 1.26381 14.6238 1.4504 15.0955C1.4856 15.187 1.54897 15.2645 1.63346 15.3173C1.73907 15.3877 4.27023 17.0001 8.50527 17.0001C12.7403 17.0001 15.2715 15.3842 15.3771 15.3173C15.4581 15.2645 15.5249 15.187 15.5602 15.0955C15.7362 14.6273 15.7326 13.6874 15.7291 13.5043Z" fill="black"/>
</svg>
