<svg width="8" height="6" viewBox="0 0 8 6" fill="none" xmlns="http://www.w3.org/2000/svg">
<path d="M7.87213 1.03238L7.61008 0.768509C7.52761 0.686102 7.41788 0.640703 7.30061 0.640703C7.18341 0.640703 7.07355 0.686102 6.99108 0.768509L4.00179 3.75793L1.00905 0.765192C0.926707 0.682785 0.816852 0.637451 0.699648 0.637451C0.582444 0.637451 0.472524 0.682785 0.390117 0.765192L0.128001 1.02744C-0.042667 1.19798 -0.042667 1.47577 0.128001 1.6463L3.69122 5.22233C3.77356 5.30468 3.88328 5.36269 4.00153 5.36269H4.00289C4.12016 5.36269 4.22989 5.30461 4.31223 5.22233L7.87213 1.656C7.9546 1.57365 7.99987 1.46061 8 1.34341C8 1.22614 7.9546 1.11466 7.87213 1.03238Z" fill="black"/>
</svg>
