<svg width="111" height="19" viewBox="0 0 111 19" fill="none" xmlns="http://www.w3.org/2000/svg">
<path d="M9.032 18.24C7.336 18.24 5.8 17.872 4.424 17.136C3.064 16.384 1.992 15.352 1.208 14.04C0.44 12.728 0.0560001 11.248 0.0560001 9.6C0.0560001 7.952 0.448 6.472 1.232 5.16C2.016 3.848 3.088 2.824 4.448 2.088C5.824 1.336 7.36 0.959999 9.056 0.959999C10.432 0.959999 11.688 1.2 12.824 1.68C13.96 2.16 14.92 2.856 15.704 3.768L13.688 5.664C12.472 4.352 10.976 3.696 9.2 3.696C8.048 3.696 7.016 3.952 6.104 4.464C5.192 4.96 4.48 5.656 3.968 6.552C3.456 7.448 3.2 8.464 3.2 9.6C3.2 10.736 3.456 11.752 3.968 12.648C4.48 13.544 5.192 14.248 6.104 14.76C7.016 15.256 8.048 15.504 9.2 15.504C10.976 15.504 12.472 14.84 13.688 13.512L15.704 15.432C14.92 16.344 13.952 17.04 12.8 17.52C11.664 18 10.408 18.24 9.032 18.24ZM35.0615 1.2V18H31.9415V10.8H23.2535V18H20.1335V1.2H23.2535V8.136H31.9415V1.2H35.0615ZM51.8992 14.112H43.4992L41.8432 18H38.6272L46.1872 1.2H49.2592L56.8432 18H53.5792L51.8992 14.112ZM50.8672 11.664L47.6992 4.32L44.5552 11.664H50.8672ZM75.3478 1.2V18H72.7798L63.5157 6.624V18H60.4197V1.2H62.9877L72.2517 12.576V1.2H75.3478ZM93.8894 15.384V18H81.2894V1.2H93.5534V3.816H84.4094V8.184H92.5214V10.752H84.4094V15.384H93.8894ZM98.8076 1.2H101.928V15.36H110.712V18H98.8076V1.2Z" fill="white"/>
</svg>
