<svg width="10" height="10" viewBox="0 0 10 10" fill="none" xmlns="http://www.w3.org/2000/svg">
<g clip-path="url(#clip0)">
<path d="M7.3069 7.29156C7.15399 7.13938 6.90667 7.13996 6.75448 7.29287L5.39074 8.66322V0.390625C5.39074 0.174883 5.21585 0 5.00011 0C4.78437 0 4.60949 0.174883 4.60949 0.390625V8.66324L3.24574 7.29285C3.09356 7.13994 2.84623 7.13936 2.69332 7.29154C2.54039 7.44375 2.53983 7.69107 2.692 7.84398L4.72324 9.88508C4.72336 9.88521 4.72349 9.88531 4.72361 9.88543C4.8758 10.0379 5.12392 10.0384 5.27662 9.88545C5.27673 9.88531 5.27687 9.88521 5.27699 9.8851L7.30823 7.844C7.46038 7.69111 7.45985 7.44377 7.3069 7.29156Z" fill="black"/>
</g>
<defs>
<clipPath id="clip0">
<rect width="10" height="10" fill="white"/>
</clipPath>
</defs>
</svg>
