<svg width="8" height="8" viewBox="0 0 8 8" fill="none" xmlns="http://www.w3.org/2000/svg">
<path d="M5.96762 7.87213L6.23149 7.61008C6.3139 7.52761 6.3593 7.41788 6.3593 7.30061C6.3593 7.18341 6.3139 7.07355 6.23149 6.99108L3.24207 4.00179L6.23481 1.00905C6.31722 0.926707 6.36255 0.816852 6.36255 0.699648C6.36255 0.582444 6.31722 0.472524 6.23481 0.390117L5.97256 0.128001C5.80202 -0.042667 5.52423 -0.042667 5.3537 0.128001L1.77767 3.69122C1.69532 3.77356 1.63731 3.88328 1.63731 4.00153V4.00289C1.63731 4.12016 1.69539 4.22989 1.77767 4.31223L5.344 7.87213C5.42635 7.9546 5.53939 7.99987 5.65659 8C5.77386 8 5.88534 7.9546 5.96762 7.87213Z" fill="black" fill-opacity="0.5"/>
</svg>
