<svg width="8" height="8" viewBox="0 0 8 8" fill="none" xmlns="http://www.w3.org/2000/svg">
<path d="M2.03238 0.127872L1.76851 0.389922C1.6861 0.472394 1.6407 0.582119 1.6407 0.699388C1.6407 0.816592 1.6861 0.926447 1.76851 1.00892L4.75793 3.99821L1.76519 6.99095C1.68278 7.07329 1.63745 7.18315 1.63745 7.30035C1.63745 7.41756 1.68278 7.52748 1.76519 7.60988L2.02744 7.872C2.19798 8.04267 2.47577 8.04267 2.6463 7.872L6.22233 4.30878C6.30468 4.22644 6.36269 4.11672 6.36269 3.99847V3.99711C6.36269 3.87984 6.30461 3.77011 6.22233 3.68777L2.656 0.127872C2.57365 0.0453992 2.46061 0.000130177 2.34341 0C2.22614 0 2.11466 0.0453992 2.03238 0.127872Z" fill="black" fill-opacity="0.5"/>
</svg>
