<svg width="10" height="10" viewBox="0 0 10 10" fill="none" xmlns="http://www.w3.org/2000/svg">
<g clip-path="url(#clip0)">
<path d="M2.6931 2.70844C2.84601 2.86062 3.09333 2.86004 3.24552 2.70713L4.60926 1.33678L4.60926 9.60937C4.60926 9.82512 4.78415 10 4.99989 10C5.21563 10 5.39051 9.82512 5.39051 9.60937L5.39051 1.33676L6.75426 2.70715C6.90644 2.86006 7.15377 2.86064 7.30668 2.70846C7.45961 2.55625 7.46017 2.30893 7.30801 2.15602L5.27676 0.114921C5.27664 0.114785 5.27651 0.114688 5.27639 0.11457C5.1242 -0.0379498 4.87608 -0.0384381 4.72338 0.11455C4.72327 0.114687 4.72313 0.114785 4.72301 0.114902L2.69177 2.156C2.53962 2.30889 2.54015 2.55623 2.6931 2.70844Z" fill="black"/>
</g>
<defs>
<clipPath id="clip0">
<rect width="10" height="10" fill="white" transform="translate(10 10) rotate(-180)"/>
</clipPath>
</defs>
</svg>
